<svg xmlns="http://www.w3.org/2000/svg" xmlns:xlink="http://www.w3.org/1999/xlink" xmlns:inkscape="http://www.inkscape.org/namespaces/inkscape" version="1.1" width="1162.2047" height="813.5433" viewBox="0 0 1162.2047 813.5433">
<g inkscape:groupmode="layer" inkscape:label="Layer 1">
</g>
<g inkscape:groupmode="layer" inkscape:label="Layer 1">
<path transform="matrix(1,0,0,-1,0,813.5433)" d="M181.5398 471.835 240.4899 494.5048 252.6999 499.2049 257.1378 500.9119C259.132 501.679 261.3419 501.6648 263.327 500.872L268.78 498.695 337.0499 471.515 338.0899 471.0949 337.0499 470.6649V470.6549L268.85 442.3649 267.3 441.7209C264.1139 440.3959 260.536 440.3699 257.33 441.648L252.7699 443.465 240.4899 448.3548ZM240.4899 320.125 181.4998 343.6149 169.27 348.4848V348.495L169.2598 361.1149 169.24 373.6349 169.2298 384.9548 169.2198 392.8748 169.2099 401.0148 169.2 405.3949 169.1799 428.485 169.1597 441.0048 169.1459 453.7888C169.143 456.5078 171.887 458.3718 174.4138 457.3658L181.4998 454.5448 240.4899 431.045 241.0498 430.825 250.3698 427.1179C251.8308 426.5359 252.792 425.1229 252.794 423.5508L252.7999 419.6248 252.8099 408.8948 252.8198 396.375 252.8498 373.2849 252.87 360.7648V360.7549L252.8898 341.5249 252.9 329.0049 252.9119 320.8538C252.9159 318.134 250.1708 316.2699 247.644 317.2759ZM367.2499 459.4748V467.1048L367.2349 474.194C367.232 475.7649 366.2739 477.176 364.8138 477.758L359.3798 479.9248 352.1999 482.7849 345.2598 485.545 337.03 488.825 282.35 510.605 268.7598 516.0149 263.9078 517.9459C261.614 518.8578 259.06 518.874 256.7548 517.989L252.6797 516.4248 240.4899 511.7349 238.2299 510.8649 181.4998 489.0549 169.1099 484.285 159.5299 480.6048 155.505 479.0548C154.0199 478.4828 153.0408 477.055 153.042 475.4628L153.0499 465.8749 153.0598 460.885 153.07 447.1849 153.0899 434.6649V434.6549L153.11 411.575 153.1298 399.045 153.1397 394.3449 153.15 379.815V378.275L153.1698 367.295V367.285L153.18 354.8948 153.197 340.179C153.199 338.6058 154.158 337.193 155.6189 336.6108L169.2899 331.1649 181.4998 326.3049 240.01 302.995H240.0199L240.4899 303.1849V302.815L252.94 297.8549 260.4699 294.8448H260.4798L269.0198 298.135 282.6 303.355 301.14 310.485 308.0469 313.1399C311.019 314.2828 311.4108 318.327 308.7139 320.019 308.518 320.1418 308.3108 320.2469 308.0959 320.33L296.5898 324.7549H296.5799L280.3 318.4849H280.2898L274.2188 316.1509C271.7019 315.184 268.9968 317.0398 268.994 319.7358L268.99 322.825 268.9798 335.3448 268.96 354.585 268.9398 367.105 268.9098 390.1949 268.8999 402.715 268.8797 419.745 268.8738 423.722C268.8718 425.2788 269.8078 426.6839 271.2458 427.28L282.1099 431.7849 337.07 454.585 345.2899 457.9948 346.917 458.6698C349.4469 459.72 352.2328 457.8619 352.2359 455.1219L352.2569 435.0149C352.2589 433.2319 353.4888 431.693 355.2239 431.284 357.5619 430.7318 359.8489 430.0449 362.075 429.232 364.604 428.3079 367.2859 430.1359 367.2828 432.8289Z" fill="#ffffff"/>
<path transform="matrix(1,0,0,-1,0,813.5433)" stroke-width="1.0001" stroke-linecap="butt" stroke-miterlimit="10.000001" stroke-linejoin="miter" fill="none" stroke="#1a1a18" d="M181.5398 471.835 240.4899 494.5048 252.6999 499.2049 257.1378 500.9119C259.132 501.679 261.3419 501.6648 263.327 500.872L268.78 498.695 337.0499 471.515 338.0899 471.0949 337.0499 470.6649V470.6549L268.85 442.3649 267.3 441.7209C264.1139 440.3959 260.536 440.3699 257.33 441.648L252.7699 443.465 240.4899 448.3548ZM240.4899 320.125 181.4998 343.6149 169.27 348.4848V348.495L169.2598 361.1149 169.24 373.6349 169.2298 384.9548 169.2198 392.8748 169.2099 401.0148 169.2 405.3949 169.1799 428.485 169.1597 441.0048 169.1459 453.7888C169.143 456.5078 171.887 458.3718 174.4138 457.3658L181.4998 454.5448 240.4899 431.045 241.0498 430.825 250.3698 427.1179C251.8308 426.5359 252.792 425.1229 252.794 423.5508L252.7999 419.6248 252.8099 408.8948 252.8198 396.375 252.8498 373.2849 252.87 360.7648V360.7549L252.8898 341.5249 252.9 329.0049 252.9119 320.8538C252.9159 318.134 250.1708 316.2699 247.644 317.2759ZM367.2499 459.4748V467.1048L367.2349 474.194C367.232 475.7649 366.2739 477.176 364.8138 477.758L359.3798 479.9248 352.1999 482.7849 345.2598 485.545 337.03 488.825 282.35 510.605 268.7598 516.0149 263.9078 517.9459C261.614 518.8578 259.06 518.874 256.7548 517.989L252.6797 516.4248 240.4899 511.7349 238.2299 510.8649 181.4998 489.0549 169.1099 484.285 159.5299 480.6048 155.505 479.0548C154.0199 478.4828 153.0408 477.055 153.042 475.4628L153.0499 465.8749 153.0598 460.885 153.07 447.1849 153.0899 434.6649V434.6549L153.11 411.575 153.1298 399.045 153.1397 394.3449 153.15 379.815V378.275L153.1698 367.295V367.285L153.18 354.8948 153.197 340.179C153.199 338.6058 154.158 337.193 155.6189 336.6108L169.2899 331.1649 181.4998 326.3049 240.01 302.995H240.0199L240.4899 303.1849V302.815L252.94 297.8549 260.4699 294.8448H260.4798L269.0198 298.135 282.6 303.355 301.14 310.485 308.0469 313.1399C311.019 314.2828 311.4108 318.327 308.7139 320.019 308.518 320.1418 308.3108 320.2469 308.0959 320.33L296.5898 324.7549H296.5799L280.3 318.4849H280.2898L274.2188 316.1509C271.7019 315.184 268.9968 317.0398 268.994 319.7358L268.99 322.825 268.9798 335.3448 268.96 354.585 268.9398 367.105 268.9098 390.1949 268.8999 402.715 268.8797 419.745 268.8738 423.722C268.8718 425.2788 269.8078 426.6839 271.2458 427.28L282.1099 431.7849 337.07 454.585 345.2899 457.9948 346.917 458.6698C349.4469 459.72 352.2328 457.8619 352.2359 455.1219L352.2569 435.0149C352.2589 433.2319 353.4888 431.693 355.2239 431.284 357.5619 430.7318 359.8489 430.0449 362.075 429.232 364.604 428.3079 367.2859 430.1359 367.2828 432.8289Z"/>
<path transform="matrix(1,0,0,-1,0,813.5433)" d="M352.3499 359.1748V358.1649L352.5199 358.1048C352.4998 358.4648 352.4499 358.8148 352.3499 359.1748M352.3499 359.1748V358.1649L352.5199 358.1048C352.4998 358.4648 352.4499 358.8148 352.3499 359.1748M352.3499 359.1748V358.1649L352.5199 358.1048C352.4998 358.4648 352.4499 358.8148 352.3499 359.1748M352.3499 359.1748V358.1649L352.5199 358.1048C352.4998 358.4648 352.4499 358.8148 352.3499 359.1748ZM337.28 412.1949H337.7999L337.1199 412.2048V409.875L337.1298 403.0549C337.2199 403.0449 337.29 403.0449 337.3498 403.035 337.3299 405.2849 337.3098 407.5449 337.2999 409.805 337.29 410.6049 337.29 411.395 337.28 412.1949ZM337.7999 412.1949H345.3398V412.2649C342.83 412.2349 340.3199 412.215 337.7999 412.1949ZM352.5199 358.1048C352.4998 358.4648 352.4499 358.8148 352.3499 359.1748V356.2648C352.4199 356.5349 352.48 356.815 352.51 357.105 352.55 357.4349 352.55 357.7748 352.5199 358.1048ZM352.0599 360.0848C352.1798 359.7849 352.2798 359.4849 352.3499 359.1848V360.0848ZM317.4299 316.745H317.4199L308.4199 320.205C310.8098 318.6848 313.2899 317.3349 315.8898 316.1548H315.9C320.6098 314.015 325.6398 312.4548 330.8998 311.5749ZM337.2199 332.6649H336.8798V332.5649L337.2199 332.5748 342.18 332.655ZM342.69 332.655H345.4398V332.7148ZM345.4299 337.735 345.4398 332.7148 345.5099 337.7049ZM367.42 316.785V316.675C367.4699 316.6849 367.5098 316.715 367.5498 316.7348ZM345.3398 412.1649 345.35 406.5948 345.49 406.535ZM337.2999 409.805 337.1199 409.875 337.1298 403.0549C337.2199 403.0449 337.29 403.0449 337.3498 403.035 337.3299 405.2849 337.3098 407.5449 337.2999 409.805ZM337.2199 332.6649V332.5748L342.18 332.655ZM342.69 332.655H345.4398V332.7148ZM345.4299 337.735 345.4398 332.7148 345.5099 337.7049ZM352.5199 358.1048C352.4998 358.4648 352.4499 358.8148 352.3499 359.1748V356.2648C352.4199 356.5349 352.48 356.815 352.51 357.105 352.55 357.4349 352.55 357.7748 352.5199 358.1048ZM352.0599 360.0848C352.1798 359.7849 352.2798 359.4849 352.3499 359.1848V360.0848ZM352.3499 359.1748V358.1649L352.5199 358.1048C352.4998 358.4648 352.4499 358.8148 352.3499 359.1748M352.3499 359.1748V358.1649L352.5199 358.1048C352.4998 358.4648 352.4499 358.8148 352.3499 359.1748" fill="#ffffff"/>
<path transform="matrix(1,0,0,-1,0,813.5433)" d="M352.3499 359.1848V356.2648C351.3098 352.5148 346.4198 350.9048 345.42 350.5949 345.39 350.585 345.3599 350.5748 345.3398 350.5649 341.6998 349.435 338.5199 350.445 337.1899 350.9549L337.18 360.1049V363.9949L337.1698 367.4449C340.52 366.5449 343.3499 365.9848 345.3999 365.635 348.6898 364.7248 351.0899 362.5248 352.0599 360.0848 352.1798 359.7849 352.2798 359.4849 352.3499 359.1848" fill="#00963f"/>
<path transform="matrix(1,0,0,-1,0,813.5433)" d="M352.3 402.9148C349.1799 403.7448 346.57 403.5249 345.57 403.4149L345.49 406.535 352.2898 403.8248Z" fill="#00963f"/>
<path transform="matrix(1,0,0,-1,0,813.5433)" d="M240.7198 410.0848C240.7 409.595 240.62 409.125 240.4899 408.685V411.825C240.66 411.2748 240.7399 410.6948 240.7198 410.0848" fill="#ffffff"/>
<path transform="matrix(1,0,0,-1,0,813.5433)" d="M345.3398 412.2649V412.1949H337.7999C340.3199 412.215 342.83 412.2349 345.3398 412.2649" fill="#ffffff"/>
<path transform="matrix(1,0,0,-1,0,813.5433)" d="M345.49 406.535 345.35 406.5948 345.3398 412.1649Z" fill="#ffffff"/>
<path transform="matrix(1,0,0,-1,0,813.5433)" d="M352.3499 360.085V359.185C352.2798 359.4849 352.1798 359.7849 352.0599 360.085Z" fill="#ffffff"/>
<path transform="matrix(1,0,0,-1,0,813.5433)" d="M342.18 332.655 337.2199 332.5748 336.8798 332.5649V332.6649H337.2199Z" fill="#ffffff"/>
<path transform="matrix(1,0,0,-1,0,813.5433)" d="M345.5099 337.7049 345.4398 332.7148 345.4299 337.735Z" fill="#ffffff"/>
<path transform="matrix(1,0,0,-1,0,813.5433)" d="M407.787 371.0721C407.787 408.1 377.962 438.1169 341.1709 438.1169 304.3809 438.1169 274.5558 408.1 274.5558 371.0721 274.5558 334.044 304.3809 304.0271 341.1709 304.0271 377.962 304.0271 407.787 334.044 407.787 371.0721" fill="#19a567"/>
<path transform="matrix(1,0,0,-1,0,813.5433)" stroke-width="10.0001" stroke-linecap="butt" stroke-miterlimit="10.000001" stroke-linejoin="miter" fill="none" stroke="#19a567" d="M407.787 371.0721C407.787 408.1 377.962 438.1169 341.1709 438.1169 304.3809 438.1169 274.5558 408.1 274.5558 371.0721 274.5558 334.044 304.3809 304.0271 341.1709 304.0271 377.962 304.0271 407.787 334.044 407.787 371.0721Z"/>
<path transform="matrix(1,0,0,-1,0,813.5433)" d="M429.6966 342.0048V354.3809L470.1784 420.8437 473.457 410.207H431.1933V424.59H485.3948V412.2139L444.7704 345.7845 442.0264 356.3878H485.5017V342.0048ZM521.9566 340.7003C515.7561 340.7003 510.5891 341.9379 506.4554 344.4131 502.2859 346.8883 499.1145 350.4674 496.9049 355.1502 494.6601 359.833 493.5552 365.4524 493.5552 371.975 493.5552 378.6647 494.6244 384.3845 496.7626 389.1677 498.9005 393.9174 502.001 397.5299 506.0633 399.9716 510.1257 402.4134 515.1861 403.6175 521.2083 403.6175 527.2308 403.6175 532.2909 402.4134 536.3535 400.0051 540.4158 397.5968 543.4804 394.0512 545.5474 389.3349 547.5784 384.6186 548.6119 378.9323 548.6119 372.3429V368.4294H506.2414V378.1295H535.1417L532.6472 374.3498C532.6472 378.1964 532.2197 381.4075 531.3288 384.0165 530.4379 386.5921 529.2264 388.5656 527.6228 389.9035 526.0192 391.2415 524.0591 391.9105 521.7072 391.9105 519.4621 391.9105 517.5023 391.2749 515.863 390.0373 514.2237 388.7663 512.9765 386.7259 512.0858 383.8827 511.1949 381.0396 510.7671 377.2933 510.7671 372.577V371.2725C510.7671 366.8573 511.266 363.3452 512.2281 360.7696 513.1905 358.194 514.5446 356.3209 516.2907 355.1837 518.0369 354.0129 520.0325 353.4443 522.2061 353.4443 524.2374 353.4443 525.8767 353.8123 527.1951 354.5147 528.478 355.2171 529.547 356.3209 530.4379 357.7592 531.3288 359.1975 531.9346 360.8365 532.2552 362.6427H548.3625C547.7567 358.2609 546.4383 354.4143 544.3356 351.1698 542.2331 347.8918 539.3466 345.3163 535.6052 343.4766 531.8634 341.6369 527.3376 340.7003 521.9566 340.7003ZM584.176 340.7003C577.9755 340.7003 572.8085 341.9379 568.6747 344.4131 564.5052 346.8883 561.3338 350.4674 559.1245 355.1502 556.8795 359.833 555.7745 365.4524 555.7745 371.975 555.7745 378.6647 556.8437 384.3845 558.9819 389.1677 561.1201 393.9174 564.2203 397.5299 568.2827 399.9716 572.345 402.4134 577.4054 403.6175 583.4276 403.6175 589.4501 403.6175 594.5102 402.4134 598.5729 400.0051 602.6352 397.5968 605.6997 394.0512 607.7667 389.3349 609.7978 384.6186 610.8313 378.9323 610.8313 372.3429V368.4294H568.461V378.1295H597.361L594.8666 374.3498C594.8666 378.1964 594.4391 381.4075 593.5482 384.0165 592.6572 386.5921 591.4457 388.5656 589.8421 389.9035 588.2386 391.2415 586.2784 391.9105 583.9265 391.9105 581.6815 391.9105 579.7216 391.2749 578.0823 390.0373 576.4431 388.7663 575.1958 386.7259 574.3052 383.8827 573.4142 381.0396 572.9865 377.2933 572.9865 372.577V371.2725C572.9865 366.8573 573.4854 363.3452 574.4475 360.7696 575.4098 358.194 576.7639 356.3209 578.5101 355.1837 580.2562 354.0129 582.2518 353.4443 584.4254 353.4443 586.4567 353.4443 588.096 353.8123 589.4144 354.5147 590.6974 355.2171 591.7663 356.3209 592.6572 357.7592 593.5482 359.1975 594.1539 360.8365 594.4748 362.6427H610.5818C609.9761 358.2609 608.6577 354.4143 606.5552 351.1698 604.4525 347.8918 601.5662 345.3163 597.8245 343.4766 594.0828 341.6369 589.557 340.7003 584.176 340.7003ZM620.4886 342.0048V402.4134H636.7025V375.6209H634.7069C635.0278 381.2737 635.9542 386.1573 637.4866 390.2715 638.9833 394.3522 641.0857 397.4964 643.7585 399.704 646.431 401.9117 649.6739 403.0155 653.4513 403.0155 653.9502 403.0155 654.5203 402.982 655.1617 402.9486 655.7675 402.9151 656.3378 402.8148 656.8367 402.6475V386.358C653.8076 386.358 651.1706 386.1573 648.8544 385.7224 646.5379 385.2876 644.6137 384.4848 643.0102 383.2472 641.4066 382.0096 640.2305 380.2368 639.4465 377.8954 638.627 375.5205 638.2349 372.3763 638.2349 368.4294V342.0048ZM691.1535 340.8341C685.131 340.8341 679.964 342.0383 675.6877 344.48 671.4113 346.9218 668.1331 350.4674 665.888 355.1502 663.643 359.833 662.5026 365.5528 662.5026 372.3429 662.5026 379.0327 663.643 384.6855 665.888 389.3349 668.1331 393.9843 671.4113 397.5299 675.652 399.9716 679.8926 402.4134 685.0599 403.6175 691.1535 403.6175 697.1757 403.6175 702.3787 402.4134 706.6905 399.9716 711.0023 397.5299 714.2451 393.9843 716.4901 389.3349 718.6997 384.6855 719.8044 379.0327 719.8044 372.3429 719.8044 365.5528 718.6997 359.833 716.4901 355.1168 714.2451 350.4005 711.0023 346.8214 706.6905 344.4466 702.3787 342.0383 697.1757 340.8341 691.1535 340.8341ZM691.2961 353.9126C693.4697 353.9126 695.3584 354.5816 696.9977 355.8861 698.637 357.1906 699.8485 359.1975 700.668 361.9069 701.4521 364.6162 701.8441 368.0949 701.8441 372.3429 701.8441 375.3867 701.6304 378.0961 701.1669 380.4041 700.7037 382.712 700.0268 384.6186 699.1359 386.1238 698.2449 387.629 697.1403 388.7328 695.8216 389.4352 694.4675 390.1377 692.9708 390.5056 691.2961 390.5056 688.9442 390.5056 686.9486 389.8701 685.3093 388.5656 683.67 387.2611 682.4585 385.321 681.6745 382.6786 680.855 380.0361 680.4629 376.5909 680.4629 372.3429 680.4629 368.0949 680.855 364.6162 681.6745 361.9069 682.4585 359.1975 683.67 357.1906 685.3093 355.8861 686.9486 354.5816 688.9442 353.9126 691.2961 353.9126ZM750.9852 340.9345C745.6042 340.9345 741.1499 341.7038 737.5507 343.2424 733.9516 344.7811 731.2076 346.9887 729.3903 349.8653 727.5373 352.7084 726.6464 356.2206 726.7175 360.4017H742.1834C742.2902 358.5285 742.6823 356.923 743.3949 355.585 744.1075 354.2471 745.1053 353.2771 746.424 352.6415 747.7067 352.006 749.2391 351.6715 750.9852 351.6715 753.2303 351.6715 755.0121 352.1733 756.2594 353.2102 757.5066 354.2471 758.1481 355.7857 758.1481 357.8261 758.1481 359.4651 757.6135 360.8031 756.58 361.84 755.5465 362.8769 754.0855 363.7466 752.2682 364.5159 750.4152 365.2517 748.4196 365.9207 746.2814 366.4894 744.1432 367.058 741.9696 367.7939 739.7957 368.6635 737.6221 369.5332 735.6266 370.6705 733.8447 372.0419 732.0271 373.4133 730.6019 375.1526 729.4972 377.2599 728.3925 379.3337 727.8579 381.9762 727.8579 385.1872 727.8579 391.0073 729.7466 395.5229 733.5238 398.7006 737.3013 401.8782 742.8249 403.4837 750.0943 403.4837 755.119 403.4837 759.3596 402.8148 762.8162 401.4768 766.2373 400.1389 768.8387 398.0985 770.6203 395.3557 772.3664 392.5794 773.2573 389.1008 773.2573 384.8528H758.3975C758.3261 387.5956 757.6135 389.6694 756.2237 391.0408 754.8338 392.4122 753.0523 393.1146 750.8784 393.1146 748.8471 393.1146 747.2435 392.6129 746.032 391.576 744.8204 390.5391 744.2147 389.0004 744.2147 386.96 744.2147 385.0534 744.749 383.5817 745.8537 382.5448 746.9229 381.4744 748.3482 380.6048 750.1657 379.9358 751.983 379.2668 753.9786 378.6313 756.1525 378.0626 758.3261 377.4606 760.5 376.7581 762.6736 375.9888 764.8475 375.2195 766.8431 374.1826 768.6604 372.8781 770.478 371.5736 771.9032 369.8342 773.0079 367.727 774.0771 365.6197 774.6114 362.8434 774.6114 359.4651 774.6114 353.4109 772.5447 348.7949 768.4109 345.6507 764.2417 342.5066 758.433 340.9345 750.9852 340.9345ZM808.8214 340.7003C804.9728 340.7003 801.8014 341.1017 799.2711 341.871 796.7412 342.6738 794.7099 343.9114 793.1064 345.6173 791.5028 347.2897 790.3624 349.5977 789.6498 352.5077 788.9369 355.4178 788.5806 358.9299 788.5806 363.0107V423.1851H805.9351V363.111C805.9351 360.6024 806.1489 358.6623 806.5766 357.2909 806.9683 355.9195 807.7524 354.9495 808.8928 354.4478 810.0332 353.946 811.4941 353.6785 813.2403 353.6785 814.5587 353.6785 815.8416 353.8457 817.0889 354.1467 818.3004 354.4478 819.4408 354.983 820.51 355.6854V342.3728C819.7617 341.9714 818.7639 341.6703 817.5166 341.4696 816.2694 341.2689 814.8438 341.1017 813.3114 340.9345 811.7436 340.7672 810.2469 340.7003 808.8214 340.7003ZM779.7787 390.3718V402.4134H820.51V390.3718ZM856.2166 340.8341C850.1941 340.8341 845.0271 342.0383 840.7508 344.48 836.4745 346.9218 833.1962 350.4674 830.9511 355.1502 828.7061 359.833 827.5657 365.5528 827.5657 372.3429 827.5657 379.0327 828.7061 384.6855 830.9511 389.3349 833.1962 393.9843 836.4745 397.5299 840.7151 399.9716 844.9557 402.4134 850.123 403.6175 856.2166 403.6175 862.2388 403.6175 867.4418 402.4134 871.7536 399.9716 876.0654 397.5299 879.3082 393.9843 881.5533 389.3349 883.7626 384.6855 884.8675 379.0327 884.8675 372.3429 884.8675 365.5528 883.7626 359.833 881.5533 355.1168 879.3082 350.4005 876.0654 346.8214 871.7536 344.4466 867.4418 342.0383 862.2388 340.8341 856.2166 340.8341ZM856.3592 353.9126C858.5328 353.9126 860.4215 354.5816 862.0608 355.8861 863.7001 357.1906 864.9116 359.1975 865.7311 361.9069 866.5152 364.6162 866.9072 368.0949 866.9072 372.3429 866.9072 375.3867 866.6935 378.0961 866.23 380.4041 865.7668 382.712 865.0896 384.6186 864.199 386.1238 863.3081 387.629 862.2034 388.7328 860.8847 389.4352 859.5306 390.1377 858.0339 390.5056 856.3592 390.5056 854.007 390.5056 852.0114 389.8701 850.3724 388.5656 848.7332 387.2611 847.5216 385.321 846.7376 382.6786 845.9178 380.0361 845.526 376.5909 845.526 372.3429 845.526 368.0949 845.9178 364.6162 846.7376 361.9069 847.5216 359.1975 848.7332 357.1906 850.3724 355.8861 852.0114 354.5816 854.007 353.9126 856.3592 353.9126ZM919.4338 340.8341C913.2333 340.8341 908.1374 342.0383 904.1105 344.48 900.0836 346.9218 897.0548 350.4674 895.0235 355.1502 892.9568 359.833 891.9232 365.5528 891.9232 372.3429 891.9232 379.0327 892.9568 384.6855 895.0592 389.268 897.1617 393.8505 900.2262 397.3961 904.2885 399.9047 908.3511 402.3799 913.3044 403.6175 919.1843 403.6175 924.2087 403.6175 928.6988 402.681 932.5831 400.8413 936.4674 399.0016 939.5677 396.1585 941.8839 392.3453 944.2003 388.5321 945.4119 383.8827 945.5902 378.3637H928.8771C928.5565 381.2737 927.9505 383.6151 927.131 385.3879 926.2757 387.1607 925.2422 388.4318 924.0307 389.268 922.8192 390.1042 921.4294 390.5056 919.8258 390.5056 917.7233 390.5056 915.9415 389.8701 914.4805 388.6325 913.0192 387.3614 911.9146 385.3879 911.1662 382.6786 910.4179 379.9692 910.0259 376.524 910.0259 372.3429 910.0259 368.0949 910.4179 364.5828 911.1662 361.84 911.9146 359.0637 913.0192 357.0233 914.4805 355.6854 915.9415 354.3474 917.7588 353.6785 919.9327 353.6785 922.3914 353.6785 924.387 354.6819 925.9194 356.6889 927.4516 358.6958 928.3782 361.7731 928.6277 365.9542H945.4833C945.2339 360.4351 944.0578 355.8192 941.9553 352.1064 939.8529 348.3601 936.9663 345.5504 933.2246 343.6773 929.4829 341.7707 924.8859 340.8341 919.4338 340.8341ZM988.5662 342.0048 971.7466 371.5067 971.4971 373.0453 987.5684 402.4134H1006.1702L987.4616 370.9046 987.0695 377.2933 1008.8073 342.0048ZM954.4989 342.0048V431.2128H972.2455V372.577L971.996 372.1088V342.0048Z" fill="#ffffff"/>
<path transform="matrix(1,0,0,-1,0,813.5433)" d="M335.8585 391.902V403.2218H346.1888V391.902ZM335.8585 334.158V347.5009H346.1888V334.158ZM340.8727 344.6198C335.4055 344.6198 330.8443 345.2533 327.2196 346.5405 323.5949 347.8073 320.8768 349.6873 319.0343 352.1597 317.1917 354.632 316.2855 357.6152 316.3459 361.1296H330.7538C330.7538 359.25 331.1464 357.656 331.9316 356.328 332.6871 354.9997 333.8651 354.0189 335.4355 353.3448 336.9759 352.6705 338.8184 352.3229 340.9631 352.3229 342.6849 352.3229 344.1648 352.5477 345.4036 353.0177 346.6417 353.4673 347.5783 354.1416 348.2731 355.0408 348.9372 355.9192 349.2694 356.9817 349.2694 358.2283 349.2694 359.6788 348.8165 360.8436 347.9409 361.7631 347.0647 362.6827 345.8565 363.4591 344.3766 364.1131 342.8966 364.7667 341.2049 365.3391 339.3323 365.8499 337.4294 366.3607 335.4959 366.8715 333.4725 367.4027 331.4486 367.9135 329.4853 368.547 327.6128 369.2622 325.7096 369.9771 324.0485 370.8967 322.5986 371.9798 321.1186 373.0626 319.9402 374.3702 319.0646 375.9029 318.1887 377.4353 317.7354 379.3561 317.7354 381.6649 317.7354 384.7504 318.6417 387.3861 320.4238 389.5929 322.206 391.7996 324.7733 393.4752 328.1562 394.6399 331.509 395.8047 335.5563 396.3767 340.2383 396.3767 345.1918 396.3767 349.4509 395.8047 353.0151 394.6399 356.5488 393.4752 359.2675 391.7384 361.1704 389.3888 363.043 387.0388 363.9796 384.0965 363.9796 380.5821H350.4478C350.5382 382.4005 350.206 383.9125 349.4509 385.0977 348.696 386.2624 347.6083 387.1616 346.1587 387.7948 344.6787 388.4284 343.0171 388.7348 341.1746 388.7348 339.5435 388.7348 338.1242 388.4896 336.9158 388.0196 335.7077 387.5292 334.8011 386.8345 334.1673 385.9149 333.5329 384.9956 333.2004 383.8717 333.2004 382.5232 333.2004 381.0929 333.6534 379.9077 334.5296 378.9677 335.4055 378.0278 336.6136 377.231 338.0936 376.5974 339.5741 375.9437 341.2953 375.3921 343.2288 374.9426 345.1317 374.4726 347.0947 374.0026 349.0886 373.4918 351.0516 372.981 352.9851 372.4087 354.888 371.7346 356.7606 371.0602 358.4523 370.2019 359.9323 369.2007 361.4122 368.1995 362.6203 366.9123 363.4965 365.3391 364.3722 363.7655 364.8251 361.8448 364.8251 359.536 364.8251 356.328 363.8891 353.59 362.016 351.3628 360.1131 349.1354 357.3649 347.4397 353.7703 346.3157 350.1456 345.1918 345.8565 344.6198 340.8727 344.6198" fill="#16253e"/>
<path transform="matrix(1,0,0,-1,0,813.5433)" d="M233.1374 403.7355 184.5635 422.5765C181.5094 423.7617 179.9946 427.1967 181.1795 430.2496 182.3635 433.3037 185.7986 434.8185 188.8526 433.6345L237.4265 414.7926C240.4794 413.6085 241.9954 410.1727 240.8105 407.1195 239.6265 404.0666 236.1906 402.5517 233.1374 403.7355" fill="#ffffff"/>
<path transform="matrix(1,0,0,-1,0,813.5433)" stroke-width="1.0001" stroke-linecap="butt" stroke-miterlimit="10.000001" stroke-linejoin="miter" fill="none" stroke="#1a1a18" d="M233.1374 403.7355 184.5635 422.5765C181.5094 423.7617 179.9946 427.1967 181.1795 430.2496 182.3635 433.3037 185.7986 434.8185 188.8526 433.6345L237.4265 414.7926C240.4794 413.6085 241.9954 410.1727 240.8105 407.1195 239.6265 404.0666 236.1906 402.5517 233.1374 403.7355Z"/>
<path transform="matrix(1,0,0,-1,0,813.5433)" d="M232.8508 368.6355 184.2769 387.4765C181.2229 388.6617 179.7077 392.0967 180.8929 395.1496 182.0769 398.2037 185.512 399.7185 188.566 398.5345L237.1399 379.6926C240.1929 378.5085 241.7088 375.0735 240.5239 372.0195 239.3399 368.9666 235.9037 367.4517 232.8508 368.6355" fill="#ffffff"/>
<path transform="matrix(1,0,0,-1,0,813.5433)" stroke-width="1.0001" stroke-linecap="butt" stroke-miterlimit="10.000001" stroke-linejoin="miter" fill="none" stroke="#1a1a18" d="M232.8508 368.6355 184.2769 387.4765C181.2229 388.6617 179.7077 392.0967 180.8929 395.1496 182.0769 398.2037 185.512 399.7185 188.566 398.5345L237.1399 379.6926C240.1929 378.5085 241.7088 375.0735 240.5239 372.0195 239.3399 368.9666 235.9037 367.4517 232.8508 368.6355Z"/>
<path transform="matrix(1,0,0,-1,0,813.5433)" d="M232.9736 336.6357 184.3997 355.4765C181.3456 356.6616 179.8308 360.0967 181.0157 363.1496 182.1997 366.2036 185.6347 367.7185 188.6888 366.5347L237.2627 347.6925C240.3156 346.5085 241.8316 343.0735 240.6467 340.0197 239.4626 336.9665 236.0268 335.4517 232.9736 336.6357" fill="#ffffff"/>
<path transform="matrix(1,0,0,-1,0,813.5433)" stroke-width="1.0001" stroke-linecap="butt" stroke-miterlimit="10.000001" stroke-linejoin="miter" fill="none" stroke="#1a1a18" d="M232.9736 336.6357 184.3997 355.4765C181.3456 356.6616 179.8308 360.0967 181.0157 363.1496 182.1997 366.2036 185.6347 367.7185 188.6888 366.5347L237.2627 347.6925C240.3156 346.5085 241.8316 343.0735 240.6467 340.0197 239.4626 336.9665 236.0268 335.4517 232.9736 336.6357Z"/>
</g>
</svg>