<svg xmlns="http://www.w3.org/2000/svg" xmlns:xlink="http://www.w3.org/1999/xlink" xmlns:inkscape="http://www.inkscape.org/namespaces/inkscape" version="1.1" width="1162.2047" height="813.5433" viewBox="0 0 1162.2047 813.5433">
<g inkscape:groupmode="layer" inkscape:label="Layer 1">
</g>
<g inkscape:groupmode="layer" inkscape:label="Layer 1">
<path transform="matrix(1,0,0,-1,0,813.5433)" d="M445.5462 557.153 530.8801 589.9689 548.5541 596.7729 554.9783 599.243C557.8651 600.3539 561.0651 600.3329 563.9372 599.186L571.8311 596.0339 670.6562 556.6898 672.1611 556.0818 670.6562 555.459V555.4449L571.9323 514.493 569.6892 513.561C565.0761 511.6439 559.8972 511.6059 555.2572 513.455L548.6562 516.0858 530.8801 523.1639ZM530.8801 337.5439 445.4881 371.5469 427.784 378.5958V378.6109L427.7701 396.879 427.7412 415.0029 427.7271 431.3889 427.712 442.8539 427.6981 454.6369 427.6831 460.9769 427.6542 494.401 427.6253 512.5249 427.6052 531.03C427.6012 534.9668 431.5731 537.664 435.2301 536.2078L445.4881 532.1248 530.8801 498.1068 531.6902 497.789 545.1823 492.4219C547.2972 491.58 548.6871 489.5348 548.6902 487.258L548.6992 481.576 548.7143 466.0438 548.7282 447.9199 548.7712 414.4958 548.8002 396.3719V396.358L548.8291 368.5209 548.8441 350.3979 548.8611 338.599C548.8671 334.6608 544.8943 331.9628 541.2351 333.4198ZM714.3721 539.261V550.3059L714.3511 560.5679C714.3463 562.8419 712.959 564.8848 710.8461 565.727L702.9802 568.8638 692.5873 573.0038 682.5413 576.9989 670.6273 581.747 591.4752 613.275 571.8022 621.106 564.7782 623.901C561.4571 625.2219 557.761 625.244 554.4252 623.9639L548.5252 621.6999 530.8801 614.9109 527.6081 613.6509 445.4881 582.08 427.5533 575.1748 413.6851 569.848 407.859 567.6038C405.7092 566.7758 404.2922 564.709 404.2942 562.405L404.3052 548.5249 404.3203 541.302 404.3341 521.4708 404.3631 503.3469V503.333L404.3923 469.923 404.4212 451.785 404.4351 444.9818 404.4501 423.949V421.719L404.4793 405.8249V405.811L404.4932 387.8748 404.5181 366.573C404.5201 364.297 405.9091 362.251 408.0243 361.408L427.8132 353.5248 445.4881 346.4898 530.185 312.747H530.1992L530.8801 313.022V312.486L548.9022 305.3069 559.8023 300.9489H559.8162L572.1792 305.712 591.836 313.268 618.6742 323.589 628.6731 327.433C632.9752 329.0859 633.5422 334.942 629.6383 337.3909 629.3551 337.5689 629.0552 337.72 628.7431 337.8399L612.0882 344.2459H612.0731L588.507 335.1699H588.4931L579.704 331.791C576.0612 330.391 572.1452 333.0768 572.1401 336.9798L572.1352 341.4518 572.1211 359.5759 572.0922 387.4269 572.0632 405.5499 572.019 438.9738 572.0051 457.098 571.9762 481.75 571.9671 487.5069C571.964 489.761 573.3201 491.794 575.401 492.658L591.1271 499.178 670.6851 532.1829 682.5841 537.1189 684.9391 538.096C688.602 539.6159 692.6352 536.927 692.6391 532.9599L692.6692 503.854C692.6712 501.2728 694.4522 499.045 696.9631 498.452 700.3491 497.6538 703.6591 496.66 706.8813 495.483 710.5431 494.1448 714.4251 496.7909 714.4203 500.69Z" fill="#16253e"/>
<path transform="matrix(1,0,0,-1,0,813.5433)" stroke-width="1.4479" stroke-linecap="butt" stroke-miterlimit="10.000001" stroke-linejoin="miter" fill="none" stroke="#1a1a18" d="M445.5462 557.153 530.8801 589.9689 548.5541 596.7729 554.9783 599.243C557.8651 600.3539 561.0651 600.3329 563.9372 599.186L571.8311 596.0339 670.6562 556.6898 672.1611 556.0818 670.6562 555.459V555.4449L571.9323 514.493 569.6892 513.561C565.0761 511.6439 559.8972 511.6059 555.2572 513.455L548.6562 516.0858 530.8801 523.1639ZM530.8801 337.5439 445.4881 371.5469 427.784 378.5958V378.6109L427.7701 396.879 427.7412 415.0029 427.7271 431.3889 427.712 442.8539 427.6981 454.6369 427.6831 460.9769 427.6542 494.401 427.6253 512.5249 427.6052 531.03C427.6012 534.9668 431.5731 537.664 435.2301 536.2078L445.4881 532.1248 530.8801 498.1068 531.6902 497.789 545.1823 492.4219C547.2972 491.58 548.6871 489.5348 548.6902 487.258L548.6992 481.576 548.7143 466.0438 548.7282 447.9199 548.7712 414.4958 548.8002 396.3719V396.358L548.8291 368.5209 548.8441 350.3979 548.8611 338.599C548.8671 334.6608 544.8943 331.9628 541.2351 333.4198ZM714.3721 539.261V550.3059L714.3511 560.5679C714.3463 562.8419 712.959 564.8848 710.8461 565.727L702.9802 568.8638 692.5873 573.0038 682.5413 576.9989 670.6273 581.747 591.4752 613.275 571.8022 621.106 564.7782 623.901C561.4571 625.2219 557.761 625.244 554.4252 623.9639L548.5252 621.6999 530.8801 614.9109 527.6081 613.6509 445.4881 582.08 427.5533 575.1748 413.6851 569.848 407.859 567.6038C405.7092 566.7758 404.2922 564.709 404.2942 562.405L404.3052 548.5249 404.3203 541.302 404.3341 521.4708 404.3631 503.3469V503.333L404.3923 469.923 404.4212 451.785 404.4351 444.9818 404.4501 423.949V421.719L404.4793 405.8249V405.811L404.4932 387.8748 404.5181 366.573C404.5201 364.297 405.9091 362.251 408.0243 361.408L427.8132 353.5248 445.4881 346.4898 530.185 312.747H530.1992L530.8801 313.022V312.486L548.9022 305.3069 559.8023 300.9489H559.8162L572.1792 305.712 591.836 313.268 618.6742 323.589 628.6731 327.433C632.9752 329.0859 633.5422 334.942 629.6383 337.3909 629.3551 337.5689 629.0552 337.72 628.7431 337.8399L612.0882 344.2459H612.0731L588.507 335.1699H588.4931L579.704 331.791C576.0612 330.391 572.1452 333.0768 572.1401 336.9798L572.1352 341.4518 572.1211 359.5759 572.0922 387.4269 572.0632 405.5499 572.019 438.9738 572.0051 457.098 571.9762 481.75 571.9671 487.5069C571.964 489.761 573.3201 491.794 575.401 492.658L591.1271 499.178 670.6851 532.1829 682.5841 537.1189 684.9391 538.096C688.602 539.6159 692.6352 536.927 692.6391 532.9599L692.6692 503.854C692.6712 501.2728 694.4522 499.045 696.9631 498.452 700.3491 497.6538 703.6591 496.66 706.8813 495.483 710.5431 494.1448 714.4251 496.7909 714.4203 500.69Z"/>
<path transform="matrix(1,0,0,-1,0,813.5433)" d="M692.8038 394.0707V392.6089L693.0499 392.5219C693.021 393.0429 692.949 393.5497 692.8038 394.0707M692.8038 394.0707V392.6089L693.0499 392.5219C693.021 393.0429 692.949 393.5497 692.8038 394.0707M692.8038 394.0707V392.6089L693.0499 392.5219C693.021 393.0429 692.949 393.5497 692.8038 394.0707M692.8038 394.0707V392.6089L693.0499 392.5219C693.021 393.0429 692.949 393.5497 692.8038 394.0707ZM670.989 470.8208H671.7419L670.758 470.8349V467.4617L670.7718 457.5898C670.902 457.5759 671.004 457.5759 671.0907 457.5609 671.0618 460.8179 671.0329 464.0899 671.0179 467.3608 671.004 468.5187 671.004 469.6628 670.989 470.8208ZM671.7419 470.8208H682.6569V470.9217C679.0229 470.8777 675.3898 470.8497 671.7419 470.8208ZM693.0499 392.5219C693.021 393.0429 692.949 393.5497 692.8038 394.0707V389.8587C692.9048 390.2488 692.9918 390.6547 693.036 391.0748 693.0938 391.5519 693.0938 392.0437 693.0499 392.5219ZM692.3837 395.3877C692.5578 394.9537 692.7029 394.5197 692.8038 394.0849V395.3877ZM642.2547 332.6508H642.2409L629.2128 337.6599C632.6719 335.4588 636.2617 333.5049 640.0259 331.7967H640.0397C646.8588 328.6987 654.1398 326.4409 661.754 325.1667ZM670.902 355.6959H670.4099V355.5507L670.902 355.5658 678.0818 355.6817ZM678.8208 355.6817H682.8009V355.7687ZM682.7868 363.0348 682.8009 355.7687 682.903 362.9917ZM714.619 332.7089V332.5499C714.691 332.5637 714.7488 332.6077 714.8069 332.6369ZM682.6569 470.7768 682.6708 462.7137 682.8738 462.6278ZM671.0179 467.3608 670.758 467.4617 670.7718 457.5898C670.902 457.5759 671.004 457.5759 671.0907 457.5609 671.0618 460.8179 671.0329 464.0899 671.0179 467.3608ZM670.902 355.6959V355.5658L678.0818 355.6817ZM678.8208 355.6817H682.8009V355.7687ZM682.7868 363.0348 682.8009 355.7687 682.903 362.9917ZM693.0499 392.5219C693.021 393.0429 692.949 393.5497 692.8038 394.0707V389.8587C692.9048 390.2488 692.9918 390.6547 693.036 391.0748 693.0938 391.5519 693.0938 392.0437 693.0499 392.5219ZM692.3837 395.3877C692.5578 394.9537 692.7029 394.5197 692.8038 394.0849V395.3877ZM692.8038 394.0707V392.6089L693.0499 392.5219C693.021 393.0429 692.949 393.5497 692.8038 394.0707M692.8038 394.0707V392.6089L693.0499 392.5219C693.021 393.0429 692.949 393.5497 692.8038 394.0707" fill="#182747"/>
<path transform="matrix(1,0,0,-1,0,813.5433)" d="M692.8038 394.0852V389.8582C691.2989 384.4301 684.22 382.0992 682.7717 381.6513 682.7289 381.6363 682.6859 381.6221 682.6569 381.6071 677.3879 379.9712 672.7839 381.4333 670.8589 382.1723L670.845 395.4172V401.0482L670.83 406.0423C675.6789 404.7392 679.7758 403.9282 682.7428 403.4222 687.5059 402.1053 690.9797 398.9203 692.3837 395.3883 692.5578 394.9543 692.7029 394.5192 692.8038 394.0852" fill="#00963f"/>
<path transform="matrix(1,0,0,-1,0,813.5433)" d="M692.7316 457.3871C688.2157 458.5881 684.4377 458.2701 682.9894 458.1111L682.8735 462.6272 692.7165 458.7041Z" fill="#00963f"/>
<path transform="matrix(1,0,0,-1,0,813.5433)" d="M531.2129 467.7661C531.1837 467.0572 531.0677 466.376 530.8798 465.7391V470.285C531.1259 469.489 531.2418 468.6491 531.2129 467.7661" fill="#182747"/>
<path transform="matrix(1,0,0,-1,0,813.5433)" d="M682.6564 470.9217V470.8208H671.7416C675.3895 470.8497 679.0235 470.8777 682.6564 470.9217" fill="#182747"/>
<path transform="matrix(1,0,0,-1,0,813.5433)" d="M682.8738 462.6272 682.6706 462.7142 682.6567 470.7774Z" fill="#182747"/>
<path transform="matrix(1,0,0,-1,0,813.5433)" d="M692.8038 395.388V394.0852C692.7029 394.5192 692.5578 394.954 692.3837 395.388Z" fill="#182747"/>
<path transform="matrix(1,0,0,-1,0,813.5433)" d="M678.0824 355.6814 670.9022 355.5655 670.4101 355.5516V355.6956H670.9022Z" fill="#182747"/>
<path transform="matrix(1,0,0,-1,0,813.5433)" d="M682.9027 362.9917 682.8018 355.7687 682.7868 363.0348Z" fill="#182747"/>
<path transform="matrix(1,0,0,-1,0,813.5433)" d="M773.0524 411.2926C773.0524 464.8927 729.8793 508.3447 676.6223 508.3447 623.3652 508.3447 580.1924 464.8927 580.1924 411.2926 580.1924 357.6926 623.3652 314.2406 676.6223 314.2406 729.8793 314.2406 773.0524 357.6926 773.0524 411.2926" fill="#19a567"/>
<path transform="matrix(1,0,0,-1,0,813.5433)" stroke-width="14.476" stroke-linecap="butt" stroke-miterlimit="10.000001" stroke-linejoin="miter" fill="none" stroke="#ffffff" d="M773.0524 411.2926C773.0524 464.8927 729.8793 508.3447 676.6223 508.3447 623.3652 508.3447 580.1924 464.8927 580.1924 411.2926 580.1924 357.6926 623.3652 314.2406 676.6223 314.2406 729.8793 314.2406 773.0524 357.6926 773.0524 411.2926Z"/>
<path transform="matrix(1,0,0,-1,0,813.5433)" d="M291.3693 189.8827V202.2588L331.8511 268.7216 335.1294 258.0849H292.866V272.4678H347.0675V260.0918L306.4431 193.6624 303.6991 204.2657H347.1744V189.8827ZM383.6293 188.5782C377.4288 188.5782 372.2615 189.8158 368.1278 192.291 363.9586 194.7662 360.7869 198.3453 358.5776 203.0281 356.3325 207.7109 355.2279 213.3303 355.2279 219.8529 355.2279 226.5426 356.2968 232.2624 358.435 237.0455 360.5732 241.7953 363.6734 245.4077 367.7357 247.8495 371.7984 250.2913 376.8585 251.4954 382.881 251.4954 388.9032 251.4954 393.9636 250.2913 398.0259 247.883 402.0883 245.4746 405.1531 241.9291 407.2198 237.2128 409.2511 232.4965 410.2846 226.8102 410.2846 220.2208V216.3073H367.914V226.0074H396.8144L394.3199 222.2277C394.3199 226.0743 393.8922 229.2854 393.0012 231.8944 392.1106 234.47 390.8988 236.4435 389.2952 237.7814 387.6917 239.1194 385.7318 239.7883 383.3799 239.7883 381.1348 239.7883 379.175 239.1528 377.5357 237.9152 375.8964 236.6442 374.6492 234.6038 373.7582 231.7606 372.8673 228.9175 372.4398 225.1712 372.4398 220.4549V219.1504C372.4398 214.7352 372.9387 211.2231 373.9008 208.6475 374.8629 206.0719 376.217 204.1988 377.9631 203.0615 379.7093 201.8908 381.7049 201.3222 383.8788 201.3222 385.9098 201.3222 387.5491 201.6901 388.8677 202.3926 390.1504 203.095 391.2197 204.1988 392.1106 205.6371 393.0012 207.0754 393.6073 208.7144 393.9279 210.5206H410.0352C409.4291 206.1388 408.1107 202.2922 406.0083 199.0477 403.9058 195.7697 401.0193 193.1941 397.2776 191.3545 393.5358 189.5148 389.0103 188.5782 383.6293 188.5782ZM445.8487 188.5782C439.6482 188.5782 434.4809 189.8158 430.3471 192.291 426.1779 194.7662 423.0062 198.3453 420.7969 203.0281 418.5519 207.7109 417.4472 213.3303 417.4472 219.8529 417.4472 226.5426 418.5162 232.2624 420.6543 237.0455 422.7925 241.7953 425.8928 245.4077 429.9554 247.8495 434.0177 250.2913 439.0778 251.4954 445.1003 251.4954 451.1228 251.4954 456.1829 250.2913 460.2453 247.883 464.3079 245.4746 467.3724 241.9291 469.4391 237.2128 471.4705 232.4965 472.504 226.8102 472.504 220.2208V216.3073H430.1334V226.0074H459.0337L456.5392 222.2277C456.5392 226.0743 456.1115 229.2854 455.2209 231.8944 454.3299 234.47 453.1181 236.4435 451.5146 237.7814 449.911 239.1194 447.9511 239.7883 445.5992 239.7883 443.3542 239.7883 441.3943 239.1528 439.755 237.9152 438.1157 236.6442 436.8685 234.6038 435.9776 231.7606 435.0866 228.9175 434.6592 225.1712 434.6592 220.4549V219.1504C434.6592 214.7352 435.1581 211.2231 436.1202 208.6475 437.0822 206.0719 438.4363 204.1988 440.1825 203.0615 441.9286 201.8908 443.9242 201.3222 446.0981 201.3222 448.1294 201.3222 449.7684 201.6901 451.0871 202.3926 452.3698 203.095 453.439 204.1988 454.3299 205.6371 455.2209 207.0754 455.8266 208.7144 456.1472 210.5206H472.2545C471.6488 206.1388 470.3301 202.2922 468.2276 199.0477 466.1252 195.7697 463.2386 193.1941 459.4969 191.3545 455.7552 189.5148 451.2297 188.5782 445.8487 188.5782ZM482.161 189.8827V250.2913H498.3752V223.4988H496.3796C496.7002 229.1516 497.6269 234.0351 499.1593 238.1494 500.656 242.2301 502.7584 245.3743 505.4309 247.5819 508.1037 249.7895 511.3466 250.8934 515.1237 250.8934 515.6226 250.8934 516.1929 250.8599 516.8344 250.8265 517.4402 250.793 518.0102 250.6927 518.5091 250.5254V234.2358C515.48 234.2358 512.8432 234.0351 510.5268 233.6003 508.2106 233.1655 506.2861 232.3627 504.6826 231.1251 503.079 229.8875 501.9032 228.1147 501.1191 225.7733 500.2994 223.3984 499.9076 220.2542 499.9076 216.3073V189.8827ZM552.8259 188.712C546.8037 188.712 541.6364 189.9162 537.3604 192.3579 533.084 194.7997 529.8055 198.3453 527.5604 203.0281 525.3154 207.7109 524.1753 213.4307 524.1753 220.2208 524.1753 226.9106 525.3154 232.5634 527.5604 237.2128 529.8055 241.8622 533.084 245.4077 537.3247 247.8495 541.5653 250.2913 546.7323 251.4954 552.8259 251.4954 558.8484 251.4954 564.0511 250.2913 568.3632 247.8495 572.675 245.4077 575.9178 241.8622 578.1628 237.2128 580.3722 232.5634 581.4768 226.9106 581.4768 220.2208 581.4768 213.4307 580.3722 207.7109 578.1628 202.9946 575.9178 198.2784 572.675 194.6993 568.3632 192.3245 564.0511 189.9162 558.8484 188.712 552.8259 188.712ZM552.9685 201.7905C555.1424 201.7905 557.0311 202.4595 558.6701 203.764 560.3094 205.0685 561.5212 207.0754 562.3407 209.7848 563.1248 212.4941 563.5168 215.9728 563.5168 220.2208 563.5168 223.2646 563.3028 225.974 562.8396 228.282 562.3764 230.5899 561.6992 232.4965 560.8083 234.0017 559.9174 235.5069 558.8127 236.6107 557.4943 237.3131 556.1402 238.0156 554.6435 238.3835 552.9685 238.3835 550.6166 238.3835 548.621 237.748 546.9817 236.4435 545.3427 235.139 544.1309 233.1989 543.3471 230.5565 542.5274 227.914 542.1353 224.4688 542.1353 220.2208 542.1353 215.9728 542.5274 212.4941 543.3471 209.7848 544.1309 207.0754 545.3427 205.0685 546.9817 203.764 548.621 202.4595 550.6166 201.7905 552.9685 201.7905ZM612.6579 188.8123C607.2769 188.8123 602.8226 189.5817 599.2234 191.1203 595.6243 192.659 592.8803 194.8666 591.0627 197.7432 589.2097 200.5863 588.3188 204.0985 588.3902 208.2796H603.8558C603.9629 206.4064 604.3547 204.8009 605.0676 203.4629 605.7802 202.125 606.778 201.155 608.0964 200.5194 609.3794 199.8839 610.9118 199.5494 612.6579 199.5494 614.903 199.5494 616.6845 200.0511 617.9318 201.0881 619.179 202.125 619.8205 203.6636 619.8205 205.704 619.8205 207.343 619.2859 208.6809 618.2527 209.7179 617.2191 210.7548 615.7582 211.6244 613.9406 212.3938 612.0876 213.1296 610.092 213.7986 607.9541 214.3672 605.8159 214.9359 603.642 215.6717 601.4684 216.5414 599.2946 217.4111 597.299 218.5483 595.5171 219.9197 593.6998 221.2911 592.2743 223.0305 591.1696 225.1378 590.0649 227.2116 589.5306 229.854 589.5306 233.0651 589.5306 238.8852 591.4191 243.4008 595.1965 246.5785 598.974 249.7561 604.4973 251.3616 611.767 251.3616 616.7917 251.3616 621.032 250.6927 624.4889 249.3547 627.9097 248.0168 630.5111 245.9764 632.2929 243.2336 634.0391 240.4573 634.93 236.9786 634.93 232.7306H620.07C619.9988 235.4734 619.2859 237.5473 617.8963 238.9187 616.5065 240.2901 614.7247 240.9925 612.5511 240.9925 610.5197 240.9925 608.9162 240.4908 607.7047 239.4539 606.4929 238.4169 605.8871 236.8783 605.8871 234.8379 605.8871 232.9313 606.4217 231.4596 607.5264 230.4227 608.5953 229.3523 610.0209 228.4826 611.8381 227.8137 613.6557 227.1447 615.6513 226.5092 617.8249 225.9405 619.9988 225.3385 622.1724 224.636 624.3463 223.8667 626.5199 223.0974 628.5155 222.0605 630.3331 220.756 632.1504 219.4515 633.5759 217.7121 634.6806 215.6049 635.7495 213.4976 636.2841 210.7213 636.2841 207.343 636.2841 201.2888 634.2174 196.6728 630.0836 193.5286 625.9141 190.3844 620.1057 188.8123 612.6579 188.8123ZM670.494 188.5782C666.6454 188.5782 663.4738 188.9796 660.9438 189.7489 658.4136 190.5517 656.3823 191.7893 654.7788 193.4952 653.1752 195.1676 652.0348 197.4756 651.3222 200.3856 650.6096 203.2957 650.2533 206.8078 650.2533 210.8886V271.063H667.6075V210.9889C667.6075 208.4803 667.8215 206.5402 668.249 205.1688 668.641 203.7974 669.4251 202.8274 670.5652 202.3257 671.7056 201.8239 673.1668 201.5563 674.913 201.5563 676.2314 201.5563 677.5143 201.7236 678.7616 202.0246 679.9731 202.3257 681.1135 202.8609 682.1824 203.5633V190.2506C681.4341 189.8493 680.4363 189.5482 679.189 189.3475 677.9418 189.1468 676.5165 188.9796 674.9841 188.8123 673.4163 188.6451 671.9196 188.5782 670.494 188.5782ZM641.4511 238.2497V250.2913H682.1824V238.2497ZM717.889 188.712C711.8668 188.712 706.6996 189.9162 702.4235 192.3579 698.1471 194.7997 694.8686 198.3453 692.6236 203.0281 690.3785 207.7109 689.2381 213.4307 689.2381 220.2208 689.2381 226.9106 690.3785 232.5634 692.6236 237.2128 694.8686 241.8622 698.1471 245.4077 702.3878 247.8495 706.6284 250.2913 711.7954 251.4954 717.889 251.4954 723.9115 251.4954 729.1142 250.2913 733.426 247.8495 737.7381 245.4077 740.9809 241.8622 743.226 237.2128 745.4353 232.5634 746.5399 226.9106 746.5399 220.2208 746.5399 213.4307 745.4353 207.7109 743.226 202.9946 740.9809 198.2784 737.7381 194.6993 733.426 192.3245 729.1142 189.9162 723.9115 188.712 717.889 188.712ZM718.0316 201.7905C720.2055 201.7905 722.094 202.4595 723.7332 203.764 725.3725 205.0685 726.584 207.0754 727.4038 209.7848 728.1879 212.4941 728.5796 215.9728 728.5796 220.2208 728.5796 223.2646 728.3659 225.974 727.9027 228.282 727.4395 230.5899 726.7623 232.4965 725.8714 234.0017 724.9805 235.5069 723.8758 236.6107 722.5574 237.3131 721.2033 238.0156 719.7066 238.3835 718.0316 238.3835 715.6797 238.3835 713.6841 237.748 712.0449 236.4435 710.4056 235.139 709.194 233.1989 708.41 230.5565 707.5905 227.914 707.1985 224.4688 707.1985 220.2208 707.1985 215.9728 707.5905 212.4941 708.41 209.7848 709.194 207.0754 710.4056 205.0685 712.0449 203.764 713.6841 202.4595 715.6797 201.7905 718.0316 201.7905ZM781.1062 188.712C774.9057 188.712 769.8098 189.9162 765.7829 192.3579 761.7563 194.7997 758.7272 198.3453 756.6959 203.0281 754.6292 207.7109 753.5957 213.4307 753.5957 220.2208 753.5957 226.9106 754.6292 232.5634 756.7316 237.1459 758.8341 241.7284 761.8989 245.274 765.9612 247.7826 770.0236 250.2578 774.9771 251.4954 780.8567 251.4954 785.8814 251.4954 790.3715 250.5589 794.2558 248.7192 798.1401 246.8795 801.2404 244.0363 803.5566 240.2232 805.8728 236.41 807.0846 231.7606 807.2626 226.2416H790.5498C790.2289 229.1516 789.6231 231.493 788.8037 233.2658 787.9482 235.0386 786.9149 236.3097 785.7031 237.1459 784.4916 237.9821 783.1018 238.3835 781.4982 238.3835 779.3957 238.3835 777.6139 237.748 776.1529 236.5104 774.6919 235.2393 773.5873 233.2658 772.8389 230.5565 772.0906 227.8471 771.6986 224.4019 771.6986 220.2208 771.6986 215.9728 772.0906 212.4607 772.8389 209.7179 773.5873 206.9416 774.6919 204.9012 776.1529 203.5633 777.6139 202.2253 779.4315 201.5563 781.6051 201.5563 784.0641 201.5563 786.0597 202.5598 787.5918 204.5667 789.1243 206.5737 790.0509 209.651 790.3003 213.8321H807.1557C806.9063 208.313 805.7305 203.6971 803.6277 199.9843 801.5253 196.238 798.639 193.4283 794.8973 191.5551 791.1556 189.6486 786.5586 188.712 781.1062 188.712ZM850.2389 189.8827 833.419 219.3846 833.1695 220.9232 849.2411 250.2913H867.8429L849.1343 218.7825 848.7422 225.1712 870.4797 189.8827ZM816.1716 189.8827V279.0907H833.9179V220.4549L833.6684 219.9866V189.8827Z" fill="#172141"/>
<path transform="matrix(1,0,0,-1,0,813.5433)" d="M668.9313 441.4456V457.8318H683.8846V441.4456ZM668.9313 357.8579V377.1726H683.8846V357.8579ZM676.1891 373.002C668.2754 373.002 661.6732 373.919 656.426 375.7822 651.1793 377.6162 647.2443 380.3372 644.5772 383.9162 641.91 387.4952 640.5979 391.8135 640.6855 396.9011H661.542C661.542 394.1799 662.1103 391.8728 663.247 389.9503 664.3403 388.0276 666.0454 386.608 668.319 385.6317 670.549 384.6557 673.2162 384.1529 676.3204 384.1529 678.8129 384.1529 680.9553 384.4783 682.7479 385.1586 684.5406 385.8092 685.8961 386.7854 686.9018 388.0868 687.8633 389.3587 688.3444 390.8968 688.3444 392.701 688.3444 394.8009 687.6887 396.487 686.4208 397.8179 685.1529 399.149 683.4036 400.2729 681.2612 401.2194 679.1187 402.1659 676.6702 402.9942 673.9597 403.7335 671.205 404.473 668.4066 405.2123 665.477 405.9814 662.5477 406.7209 659.7054 407.6379 656.9946 408.6731 654.2399 409.7083 651.835 411.0392 649.7365 412.6071 647.5941 414.1746 645.8888 416.0676 644.6205 418.286 643.3526 420.5044 642.6969 423.2846 642.6969 426.6269 642.6969 431.0932 644.0085 434.9089 646.5883 438.1033 649.1679 441.2976 652.8844 443.723 657.7815 445.409 662.6347 447.0951 668.4936 447.9231 675.2713 447.9231 682.4415 447.9231 688.6069 447.0951 693.7665 445.409 698.8819 443.723 702.8169 441.2089 705.5717 437.8073 708.2824 434.406 709.638 430.1467 709.638 425.0594H690.0494C690.1807 427.6916 689.7002 429.8805 688.6069 431.5961 687.5135 433.2821 685.9397 434.5835 683.8407 435.5002 681.6986 436.4172 679.2939 436.8609 676.6268 436.8609 674.2655 436.8609 672.2104 436.506 670.4614 435.8256 668.7125 435.1158 667.4009 434.1101 666.4827 432.7792 665.5643 431.4481 665.0836 429.8213 665.0836 427.8694 665.0836 425.7986 665.7395 424.0831 667.0074 422.7228 668.2754 421.3621 670.0243 420.2084 672.1665 419.2917 674.3089 418.3452 676.8014 417.5464 679.5998 416.8959 682.3545 416.2156 685.1962 415.5352 688.0822 414.7957 690.9242 414.0564 693.7223 413.2281 696.477 412.2519 699.1883 411.2759 701.6366 410.0338 703.779 408.5844 705.9217 407.1351 707.6701 405.2716 708.9384 402.9942 710.2063 400.7166 710.8625 397.9363 710.8625 394.594 710.8625 389.9503 709.507 385.9866 706.7962 382.7628 704.0415 379.5386 700.0622 377.0838 694.8592 375.457 689.6126 373.8302 683.4036 373.002 676.1891 373.002" fill="#16253e"/>
<path transform="matrix(1,0,0,-1,0,813.5433)" d="M520.2369 458.5751 449.9229 485.8489C445.5028 487.563 443.3097 492.5361 445.0238 496.9559 446.7387 501.376 451.7118 503.57 456.1316 501.855L526.4459 474.5809C530.8656 472.8671 533.0588 467.894 531.3438 463.4739 529.6297 459.0541 524.6566 456.861 520.2369 458.5751" fill="#16253e"/>
<path transform="matrix(1,0,0,-1,0,813.5433)" stroke-width="1.4479" stroke-linecap="butt" stroke-miterlimit="10.000001" stroke-linejoin="miter" fill="none" stroke="#1a1a18" d="M520.2369 458.5751 449.9229 485.8489C445.5028 487.563 443.3097 492.5361 445.0238 496.9559 446.7387 501.376 451.7118 503.57 456.1316 501.855L526.4459 474.5809C530.8656 472.8671 533.0588 467.894 531.3438 463.4739 529.6297 459.0541 524.6566 456.861 520.2369 458.5751Z"/>
<path transform="matrix(1,0,0,-1,0,813.5433)" d="M519.8219 407.7658 449.5079 435.0396C445.0878 436.7537 442.895 441.7268 444.6088 446.1466 446.3237 450.5666 451.2969 452.7598 455.7169 451.0457L526.0309 423.7716C530.4509 422.0578 532.6438 417.0847 530.9289 412.6646 529.2147 408.2448 524.2419 406.0517 519.8219 407.7658" fill="#16253e"/>
<path transform="matrix(1,0,0,-1,0,813.5433)" stroke-width="1.4479" stroke-linecap="butt" stroke-miterlimit="10.000001" stroke-linejoin="miter" fill="none" stroke="#1a1a18" d="M519.8219 407.7658 449.5079 435.0396C445.0878 436.7537 442.895 441.7268 444.6088 446.1466 446.3237 450.5666 451.2969 452.7598 455.7169 451.0457L526.0309 423.7716C530.4509 422.0578 532.6438 417.0847 530.9289 412.6646 529.2147 408.2448 524.2419 406.0517 519.8219 407.7658Z"/>
<path transform="matrix(1,0,0,-1,0,813.5433)" d="M519.9999 361.4437 449.6856 388.7178C445.2659 390.4319 443.0727 395.4047 444.7868 399.8248 446.5018 404.2449 451.4749 406.4377 455.8946 404.7239L526.2089 377.4498C530.6287 375.7357 532.8218 370.7629 531.1069 366.3428 529.3928 361.9227 524.4197 359.7299 519.9999 361.4437" fill="#16253e"/>
<path transform="matrix(1,0,0,-1,0,813.5433)" stroke-width="1.4479" stroke-linecap="butt" stroke-miterlimit="10.000001" stroke-linejoin="miter" fill="none" stroke="#1a1a18" d="M519.9999 361.4437 449.6856 388.7178C445.2659 390.4319 443.0727 395.4047 444.7868 399.8248 446.5018 404.2449 451.4749 406.4377 455.8946 404.7239L526.2089 377.4498C530.6287 375.7357 532.8218 370.7629 531.1069 366.3428 529.3928 361.9227 524.4197 359.7299 519.9999 361.4437Z"/>
</g>
</svg>
